# AST/ASF file generated using VICON BodyLanguage
# -----------------------------------------------
:version 1.10
:name VICON
:units
  mass 1.0
  length 0.45
  angle deg
:documentation
   .ast/.asf automatically generated from VICON data using
   VICON BodyBuilder and BodyLanguage model FoxedUp or BRILLIANT.MOD
:root
   order TX TY TZ RX RY RZ
   axis XYZ
   position 0 0 0  
   orientation 0 0 0 
:bonedata
  begin
     id 1 
     name lhipjoint
     direction 0.623529 -0.717805 0.309788 
     length 2.23224 
     axis 0 0 0  XYZ
  end
  begin
     id 2 
     name lfemur
     direction 0.34202 -0.939693 0  
     length 7.11402  
     axis 0 0 20  XYZ
    dof rx ry rz
    limits (-160.0 20.0)
           (-70.0 70.0)
           (-60.0 70.0)
  end
  begin
     id 3 
     name ltibia
     direction 0.34202 -0.939693 0   
     length 6.78496   
     axis 0 0 20   XYZ
    dof rx
    limits (-10.0 170.0)
  end
  begin
     id 4 
     name lfoot
     direction 0.125078 -0.343648 0.930732   
     length 1.84054   
     axis -90 7.62852e-016 20   XYZ
    dof rx rz
    limits (-45.0 90.0)
           (-70.0 20.0)
  end
  begin
     id 5 
     name ltoes
     direction 1.53565e-011 -4.21893e-011 1   
     length 0.916474   
     axis -90 7.62852e-016 20   XYZ
    dof rx
    limits (-90.0 20.0)
  end
  begin
     id 6 
     name rhipjoint
     direction -0.564688 -0.757748 0.327026   
     length 2.11457  
     axis 0 0 0  XYZ 
  end
  begin
     id 7 
     name rfemur
     direction -0.34202 -0.939693 0   
     length 7.14609   
     axis 0 0 -20   XYZ
    dof rx ry rz
    limits (-160.0 20.0)
           (-70.0 70.0)
           (-70.0 60.0)
  end
  begin
     id 8 
     name rtibia
     direction -0.34202 -0.939693 0   
     length 6.78101   
     axis 0 0 -20   XYZ
    dof rx
    limits (-10.0 170.0)
 end
 begin
     id 9 
     name rfoot
     direction -0.0992671 -0.272734 0.956955   
     length 1.96168  
     axis -90 -7.62852e-016 -20   XYZ
    dof rx rz
    limits (-45.0 90.0)
           (-20.0 70.0)
  end
  begin
     id 10 
     name rtoes
     direction -1.5356e-011 -4.21891e-011 1   
     length 0.982933   
     axis -90 -7.62852e-016 -20   XYZ
    dof rx
    limits (-90.0 20.0)
  end
  begin
     id 11 
     name lowerback
     direction -0.00596953 0.998668 0.0512524   
     length 1.87557   
     axis 0 0 0   XYZ
    dof rx ry rz
    limits (-20.0 45.0)
           (-30.0 30.0)
           (-30.0 30.0)
  end
  begin
     id 12 
     name upperback
     direction 0.00584879 0.999652 0.0257308   
     length 1.87883   
     axis 0 0 0   XYZ
    dof rx ry rz
    limits (-20.0 45.0)
           (-30.0 30.0)
           (-30.0 30.0)
  end
  begin
     id 13 
     name thorax
     direction 0.010104 0.999947 0.00178881   
     length 1.87779   
     axis 0 0 0   XYZ
    dof rx ry rz
    limits (-20.0 45.0)
           (-30.0 30.0)
           (-30.0 30.0)
  end
  begin
     id 14 
     name lowerneck
     direction 0.0120771 0.995934 -0.0892773   
     length 1.40897   
     axis 0 0 0   XYZ
    dof rx ry rz
    limits (-20.0 45.0)
           (-30.0 30.0)
           (-30.0 30.0)
  end
  begin
     id 15 
     name upperneck
     direction -0.030568 0.999465 -0.0116366   
     length 1.38661   
     axis 0 0 0   XYZ
    dof rx ry rz
    limits (-20.0 45.0)
           (-30.0 30.0)
           (-30.0 30.0)
  end
  begin
     id 16
     name head
     direction -0.0170715 0.999854 -0.00104426  
     length 1.47052  
     axis 0 0 0   XYZ
    dof rx ry rz
    limits (-20.0 45.0)
           (-30.0 30.0)
           (-30.0 30.0)
  end
  begin
     id 17 
     name lclavicle
     direction 0.977763 0.206143 0.038532  
     length 3.02424  
     axis 0 0 0   XYZ
    dof ry rz
    limits (-20.0 10.0)
           (0.0 20.0)
  end
  begin
     id 18 
     name lhumerus
     direction 1 -4.48965e-011 -2.62654e-027   
     length 4.68382   
     axis 180 -30 -90   XYZ
    dof rx ry rz
    limits (-60.0 90.0)
           (-90.0 90.0)
           (-90.0 90.0)
  end
  begin
     id 19
     name lradius
     direction 1 -4.48973e-011 -1.54954e-027   
     length 2.98124   
     axis 180 -30 -90   XYZ
    dof rx
    limits (-10.0 170.0)
  end
  begin
     id 20
     name lwrist
     direction 1 -4.48959e-011 7.20928e-028   
     length 1.49062   
     axis -5.52449e-016 90 90   XYZ
    dof ry
    limits (-180.0 0.0)
 end
  begin
     id 21 
     name lhand
     direction 1 -4.48971e-011 1.44186e-027   
     length 0.707595   
     axis -9.20027e-016 90 90   XYZ
    dof rx rz
    limits (-90.0 90.0)
           (-45.0 45.0)
  end
  begin
     id 22 
     name lfingers
     direction 1 -4.48985e-011 2.88371e-027   
     length 0.570481   
     axis -1.84005e-015 90 90   XYZ
    dof rx
    limits (0.0 90.0)
  end
  begin
     id 23
     name lthumb
     direction 0.707107 -6.34929e-011 0.707107   
     length 0.819101   
     axis -90 45 2.85299e-015   XYZ
    dof rx rz
    limits (-45.0 45.0)
           (-45.0 45.0)
  end
  begin
     id 24 
     name rclavicle
     direction -0.958661 0.284411 -0.00895327   
     length 3.11921  
     axis 0 0 0   XYZ 
    dof ry rz
    limits (-10.0 20.0)
           (-20.0 0.0)
  end
  begin
     id 25 
     name rhumerus
     direction -1 -4.48963e-011 -4.22193e-027  
     length 4.75876   
     axis 180 30 90   XYZ
    dof rx ry rz
    limits (-90.0 60.0)
           (-90.0 90.0)
           (-90.0 90.0)
  end
  begin
     id 26 
     name rradius
     direction -1 -4.48968e-011 -1.07616e-027   
     length 2.93293   
     axis 180 30 90   XYZ
    dof rx
    limits (-10.0 170.0)
  end
  begin
     id 27 
     name rwrist
     direction -1 -4.48965e-011 7.20928e-028   
     length 1.46647   
     axis -5.52449e-016 -90 -90   XYZ
    dof ry
    limits (-180.0 0.0)
  end
  begin
     id 28
     name rhand
     direction -1 -4.48971e-011 1.44186e-027   
     length 0.831748   
     axis -9.20027e-016 -90 -90   XYZ
    dof rx rz
    limits (-90.0 90.0)
           (-45.0 45.0)
  end
  begin
     id 29
     name rfingers
     direction -1 -4.48961e-011 2.88371e-027   
     length 0.670577   
     axis -1.84005e-015 -90 -90   XYZ
    dof rx
    limits (0.0 90.0)
  end
  begin
     id 30
     name rthumb
     direction -0.707107 -6.34929e-011 0.707107   
     length 0.962818   
     axis -90 -45 -2.85299e-015   XYZ
    dof rx rz
    limits (-45.0 45.0)
           (-45.0 45.0)
  end
:hierarchy
  begin
    root lhipjoint rhipjoint lowerback
    lhipjoint lfemur
    lfemur ltibia
    ltibia lfoot
    lfoot ltoes
    rhipjoint rfemur
    rfemur rtibia
    rtibia rfoot
    rfoot rtoes
    lowerback upperback
    upperback thorax
    thorax lowerneck lclavicle rclavicle
    lowerneck upperneck
    upperneck head
    lclavicle lhumerus
    lhumerus lradius
    lradius lwrist
    lwrist lhand lthumb
    lhand lfingers
    rclavicle rhumerus
    rhumerus rradius
    rradius rwrist
    rwrist rhand rthumb
    rhand rfingers
  end

#!OML:ASF E:\id_vita\Project 1\Capture day 1\Session 1\Female.ASF
:FULLY-SPECIFIED
:DEGREES
201
root -23.9139 16.363 0.190386 11.2974 86.766 -1.85959
lowerback -12.9852 -0.271729 -5.26071
upperback -5.66649 0.485376 1.08585
thorax 1.26549 0.442218 4.17464
lowerneck 2.67826 0.448912 -7.54364
upperneck 8.2934 -0.239002 25.0179
head 1.87807 0.527475 9.16045
rclavicle 3.0369e-015 6.93262e-015
rhumerus -34.0441 -16.9813 -83.7156
rradius 16.2242
rwrist 27.9733
rhand -13.0249 9.35629
rfingers 7.12502
rthumb 13.0692 -20.2142
lclavicle 3.0369e-015 6.93262e-015
lhumerus -44.458 41.0378 64.0244
lradius 11.5593
lwrist -65.9599
lhand -4.69005 22.8926
lfingers 7.12502
lthumb 21.0912 51.7655
rfemur -19.1398 7.96425 22.6276
rtibia 23.7737
rfoot -11.3455 -21.4193
rtoes 2.14142
lfemur -20.0672 -10.9717 -17.4722
ltibia 27.5605
lfoot -24.1201 8.09928
ltoes -0.291293
202
root -23.9091 16.3619 0.204441 11.8874 86.8979 -1.37701
lowerback -12.957 -0.292712 -5.08455
upperback -5.76625 0.440943 1.00774
thorax 1.15423 0.424204 3.98515
lowerneck 1.71909 0.0145644 -6.6937
upperneck 9.27115 -0.97362 23.4783
head 2.46672 0.252631 8.48953
rclavicle -3.66199e-015 -6.60959e-015
rhumerus -34.1891 -17.7107 -83.4366
rradius 16.1364
rwrist 28.7707
rhand -13.0757 9.68036
rfingers 7.12502
rthumb 13.0202 -19.8933
lclavicle -3.66199e-015 -6.60959e-015
lhumerus -44.3918 40.7191 64.1227
lradius 11.6571
lwrist -65.7026
lhand -4.47909 23.1389
lfingers 7.12502
lthumb 21.2938 51.9891
rfemur -19.25 7.89235 22.6732
rtibia 23.81
rfoot -11.3481 -21.4931
rtoes 2.01952
lfemur -20.2239 -10.9076 -17.4065
ltibia 27.5995
lfoot -24.0969 7.98241
ltoes -0.925742
203
root -23.9009 16.36 0.217682 12.1641 86.8992 -1.04376
lowerback -12.8629 -0.310654 -4.90104
upperback -5.8221 0.393034 0.943854
thorax 1.05344 0.401161 3.8058
lowerneck 1.55526 -0.0766236 -6.35868
upperneck 9.49892 -1.11781 22.7023
head 2.58775 0.181982 8.16485
rclavicle -9.9237e-015 -8.62228e-015
rhumerus -34.33 -18.4642 -83.1313
rradius 15.9094
rwrist 29.706
rhand -13.1122 10.0951
rfingers 7.12502
rthumb 12.9851 -19.4808
lclavicle -9.9237e-015 -8.62228e-015
lhumerus -44.2437 40.2099 64.3906
lradius 11.7065
lwrist -65.1151
lhand -4.54328 23.5426
lfingers 7.12502
lthumb 21.2322 52.3997
rfemur -19.171 7.5862 22.7752
rtibia 23.824
rfoot -11.4155 -21.3025
rtoes 1.45077
lfemur -20.1751 -10.6464 -17.4173
ltibia 27.6605
lfoot -24.2131 7.78962
ltoes -0.965534
204
root -23.8915 16.3581 0.232834 10.9984 86.8807 -2.13948
lowerback -12.8975 -0.345158 -4.73294
upperback -5.77859 0.326598 0.99969
thorax 1.12611 0.361966 3.76096
lowerneck 1.41257 0.0555001 -6.61587
upperneck 9.66548 -0.964234 22.5393
head 2.637 0.254112 8.16244
rclavicle -4.4711e-015 -1.50082e-014
rhumerus -34.2454 -18.1847 -83.2566
rradius 15.8367
rwrist 29.6784
rhand -13.2304 10.0753
rfingers 7.12502
rthumb 12.8711 -19.5079
lclavicle -4.4711e-015 -1.50082e-014
lhumerus -44.108 40.1303 64.5722
lradius 11.6576
lwrist -64.8413
lhand -4.63435 23.8514
lfingers 7.12502
lthumb 21.1447 52.7183
rfemur -19.0611 7.41766 22.9415
rtibia 23.8424
rfoot -11.6692 -21.0803
rtoes 1.82228
lfemur -20.0845 -10.5067 -17.3402
ltibia 27.7257
lfoot -24.3519 7.72006
ltoes -0.750502
205
root -23.883 16.3573 0.249388 10.0375 86.8556 -3.11589
lowerback -13.0287 -0.352573 -4.6161
upperback -5.70904 0.306892 1.04989
thorax 1.27268 0.344593 3.74678
lowerneck 1.42639 0.277129 -7.00906
upperneck 9.60221 -0.657611 22.6473
head 2.56604 0.385731 8.2729
rclavicle -8.6548e-015 -2.83175e-014
rhumerus -34.1153 -17.966 -83.3832
rradius 15.8693
rwrist 29.4738
rhand -13.3631 9.96018
rfingers 7.12502
rthumb 12.7432 -19.631
lclavicle -8.6548e-015 -2.83175e-014
lhumerus -44.2988 40.8153 64.0709
lradius 11.5145
lwrist -65.5807
lhand -5.00324 23.7696
lfingers 7.12502
lthumb 20.7903 52.6758
rfemur -19.065 7.42983 23.0705
rtibia 23.8995
rfoot -11.8914 -20.9462
rtoes 2.29801
lfemur -20.0682 -10.4632 -17.2304
ltibia 27.7451
lfoot -24.4198 7.71742
ltoes -0.671566
206
root -23.8768 16.3556 0.264366 10.7588 86.6362 -2.45907
lowerback -13.1161 -0.293782 -4.58614
upperback -5.70077 0.386373 1.01696
thorax 1.32135 0.382121 3.70728
lowerneck 2.28774 0.66206 -7.51061
upperneck 8.62831 0.00160192 23.1785
head 2.02065 0.604284 8.52105
rclavicle -1.33144e-014 -9.01597e-015
rhumerus -34.0249 -18.0509 -83.4489
rradius 15.9018
rwrist 29.2858
rhand -13.3645 9.77946
rfingers 7.12502
rthumb 12.7419 -19.8118
lclavicle -1.33144e-014 -9.01597e-015
lhumerus -44.7805 41.7357 63.1165
lradius 11.3753
lwrist -66.8471
lhand -5.30041 23.6449
lfingers 7.12502
lthumb 20.5048 52.5821
rfemur -19.1683 7.50896 23.0632
rtibia 23.9884
rfoot -11.7378 -20.9107
rtoes 2.06845
lfemur -20.0953 -10.2086 -17.2562
ltibia 27.7491
lfoot -24.4404 7.70609
ltoes -0.862315
207
root -23.8704 16.352 0.287736 14.1516 86.8362 0.961259
lowerback -13.0948 -0.418634 -4.8892
upperback -5.67967 0.255533 1.0231
thorax 1.3412 0.319913 3.86741
lowerneck 2.07345 0.525779 -7.23125
upperneck 8.63577 -0.175785 22.5132
head 2.09798 0.509956 8.24259
rclavicle -9.10061e-016 -1.18836e-014
rhumerus -33.9035 -17.9552 -83.5333
rradius 15.9237
rwrist 28.9796
rhand -13.3068 9.61656
rfingers 7.12502
rthumb 12.7975 -19.9712
lclavicle -9.10061e-016 -1.18836e-014
lhumerus -45.2512 42.5072 62.2905
lradius 11.2383
lwrist -68.0003
lhand -5.13208 23.6224
lfingers 7.12502
lthumb 20.6665 52.5421
rfemur -19.1257 7.85263 22.925
rtibia 24.1019
rfoot -11.509 -21.6774
rtoes 2.51967
lfemur -20.0621 -10.2201 -17.3741
ltibia 27.7616
lfoot -24.5329 7.57434
ltoes -0.86905
208
root -23.8698 16.3492 0.30057 15.5314 86.7274 2.13424
lowerback -13.1994 -0.434156 -4.90343
upperback -5.77216 0.246273 1.0479
thorax 1.30089 0.321711 3.90076
lowerneck 1.88599 0.534572 -7.07639
upperneck 8.77411 -0.172595 21.8624
head 2.17694 0.505886 7.99706
rclavicle -3.65733e-015 1.86361e-015
rhumerus -33.9072 -17.8251 -83.5459
rradius 15.9921
rwrist 28.8226
rhand -13.1468 9.50693
rfingers 7.12502
rthumb 12.9517 -20.0711
lclavicle -3.65733e-015 1.86361e-015
lhumerus -45.4653 42.6948 62.0624
lradius 11.2354
lwrist -68.1954
lhand -4.91935 23.2936
lfingers 7.12502
lthumb 20.8709 52.191
rfemur -19.4778 7.71037 22.9009
rtibia 24.2354
rfoot -11.3328 -21.6984
rtoes 1.62004
lfemur -20.3069 -10.2404 -17.3702
ltibia 27.7827
lfoot -24.4719 7.69044
ltoes -0.70109
209
root -23.8708 16.3466 0.310901 15.3347 86.3306 1.76317
lowerback -13.2209 -0.359535 -4.72208
upperback -5.88143 0.328142 1.04166
thorax 1.19165 0.367339 3.80212
lowerneck 1.52753 0.605937 -7.14999
upperneck 9.3278 -0.144382 21.3928
head 2.39819 0.544665 7.867
rclavicle -9.56651e-016 3.23025e-015
rhumerus -33.9465 -17.4522 -83.7655
rradius 16.1345
rwrist 28.6351
rhand -13.0572 9.42863
rfingers 7.12502
rthumb 13.038 -20.1439
lclavicle -9.56651e-016 3.23025e-015
lhumerus -45.4092 42.4732 62.2739
lradius 11.3428
lwrist -67.7311
lhand -4.9203 23.0717
lfingers 7.12502
lthumb 20.87 51.9691
rfemur -19.8061 7.51724 22.9256
rtibia 24.3374
rfoot -11.2353 -21.2893
rtoes 0.517393
lfemur -20.5135 -9.75594 -17.3989
ltibia 27.8367
lfoot -24.4229 7.57531
ltoes -0.801716
210
root -23.8609 16.3434 0.322592 18.1016 86.7358 4.68346
lowerback -13.0182 -0.518479 -4.66201
upperback -5.86964 0.0993885 0.994093
thorax 1.11878 0.251797 3.6846
lowerneck 1.36276 0.642506 -7.21732
upperneck 9.65838 -0.131335 21.0665
head 2.52274 0.55915 7.77852
rclavicle -3.12154e-015 1.97294e-014
rhumerus -33.9871 -16.9713 -84.0715
rradius 16.2917
rwrist 28.4229
rhand -13.0977 9.33986
rfingers 7.12502
rthumb 12.9991 -20.2352
lclavicle -3.12154e-015 1.97294e-014
lhumerus -45.6735 42.8247 61.8605
lradius 11.3135
lwrist -68.2353
lhand -5.11433 23.2346
lfingers 7.12502
lthumb 20.6836 52.1525
rfemur -19.5606 7.70567 22.8339
rtibia 24.4032
rfoot -11.4364 -21.8614
rtoes 2.00897
lfemur -20.4235 -9.59659 -17.5193
ltibia 27.9272
lfoot -24.5553 7.09428
ltoes -1.0716
211
root -23.849 16.3404 0.347059 16.7218 86.5543 3.33577
lowerback -12.9792 -0.429641 -4.6287
upperback -5.91818 0.212825 0.972177
thorax 1.03626 0.311623 3.6575
lowerneck 1.37322 0.661993 -7.12498
upperneck 9.83109 -0.116786 20.7753
head 2.57162 0.566249 7.66818
rclavicle -9.58515e-015 2.3233e-014
rhumerus -34.2002 -17.2375 -83.9613
rradius 16.3174
rwrist 28.605
rhand -12.992 9.30648
rfingers 7.12502
rthumb 13.1009 -20.262
lclavicle -9.58515e-015 2.3233e-014
lhumerus -45.7539 42.8006 61.6755
lradius 11.2748
lwrist -68.475
lhand -5.22721 23.4653
lfingers 7.12502
lthumb 20.5751 52.3949
rfemur -19.4454 8.19436 22.9137
rtibia 24.4303
rfoot -11.5669 -22.1173
rtoes 2.98921
lfemur -20.3415 -9.3189 -17.4317
ltibia 28.0321
lfoot -24.7208 7.15065
ltoes -1.16738
